HIERARCHY
ROOT joint_Root
{
	OFFSET 0.0 0.0 0.0
	CHANNELS 6 Xposition Yposition Zposition Zrotation Xrotation Yrotation 
	JOINT Hips
	{
		OFFSET -0.726466 93.3139 -2.00062
		CHANNELS 6 Xposition Yposition Zposition Zrotation Xrotation Yrotation 
		JOINT Spine
		{
			OFFSET 15.7357 0.0 0.0
			CHANNELS 6 Xposition Yposition Zposition Zrotation Xrotation Yrotation 
			JOINT Chest
			{
				OFFSET 8.98455 -0.406207 0.0
				CHANNELS 6 Xposition Yposition Zposition Zrotation Xrotation Yrotation 
				JOINT Neck
				{
					OFFSET 16.3773 0.0 0.0
					CHANNELS 6 Xposition Yposition Zposition Zrotation Xrotation Yrotation 
					JOINT Head
					{
						OFFSET 6.45672 0.0 0.0
						CHANNELS 6 Xposition Yposition Zposition Zrotation Xrotation Yrotation 
						End Site
						{
							OFFSET 0.0 0.0 0.0
						}
					}
				}
				JOINT Shoulder_L
				{
					OFFSET 12.9942 -0.242716 4.98039
					CHANNELS 6 Xposition Yposition Zposition Zrotation Xrotation Yrotation 
					JOINT UpperArm_L
					{
						OFFSET 5.34809 0.0 0.0
						CHANNELS 6 Xposition Yposition Zposition Zrotation Xrotation Yrotation 
						JOINT LowerArm_L
						{
							OFFSET 24.3286 1.87007e-05 0.0
							CHANNELS 6 Xposition Yposition Zposition Zrotation Xrotation Yrotation 
							JOINT Hand_L
							{
								OFFSET 22.2916 0.0 0.0
								CHANNELS 6 Xposition Yposition Zposition Zrotation Xrotation Yrotation 
								End Site
								{
									OFFSET 0.0 0.0 0.0
								}
							}
						}
					}
				}
				JOINT Shoulder_R
				{
					OFFSET 12.9945 -0.242716 -4.98039
					CHANNELS 6 Xposition Yposition Zposition Zrotation Xrotation Yrotation 
					JOINT UpperArm_R
					{
						OFFSET -5.34813 0.0 0.0
						CHANNELS 6 Xposition Yposition Zposition Zrotation Xrotation Yrotation 
						JOINT LowerArm_R
						{
							OFFSET -24.3289 0.000322201 0.0
							CHANNELS 6 Xposition Yposition Zposition Zrotation Xrotation Yrotation 
							JOINT Hand_R
							{
								OFFSET -22.2915 -0.000108084 0.0
								CHANNELS 6 Xposition Yposition Zposition Zrotation Xrotation Yrotation 
								End Site
								{
									OFFSET 0.0 0.0 0.0
								}
							}
						}
					}
				}
			}
		}
		JOINT UpperLeg_L
		{
			OFFSET -2.19248 -6.46944 0.0
			CHANNELS 6 Xposition Yposition Zposition Zrotation Xrotation Yrotation 
			JOINT LowerLeg_L
			{
				OFFSET 39.0811 0.0 -1.23785e-05
				CHANNELS 6 Xposition Yposition Zposition Zrotation Xrotation Yrotation 
				JOINT Foot_L
				{
					OFFSET 40.9854 0.0 -1.26872e-05
					CHANNELS 6 Xposition Yposition Zposition Zrotation Xrotation Yrotation 
					JOINT Toes_L
					{
						OFFSET 11.7543 0.0 0.0
						CHANNELS 6 Xposition Yposition Zposition Zrotation Xrotation Yrotation 
						End Site
						{
							OFFSET 0.0 0.0 0.0
						}
					}
				}
			}
		}
		JOINT UpperLeg_R
		{
			OFFSET -2.19251 6.46944 0.0
			CHANNELS 6 Xposition Yposition Zposition Zrotation Xrotation Yrotation 
			JOINT LowerLeg_R
			{
				OFFSET -39.0811 -0.00228153 -0.0401928
				CHANNELS 6 Xposition Yposition Zposition Zrotation Xrotation Yrotation 
				JOINT Foot_R
				{
					OFFSET -40.9854 0.0 0.0
					CHANNELS 6 Xposition Yposition Zposition Zrotation Xrotation Yrotation 
					JOINT Toes_R
					{
						OFFSET -11.7543 0.0 0.0
						CHANNELS 6 Xposition Yposition Zposition Zrotation Xrotation Yrotation 
						End Site
						{
							OFFSET 0.0 0.0 0.0
						}
					}
				}
			}
		}
	}
}
MOTION
Frames:	6
Frame Time:	0.0333333
0.000000 0.000000 0.000000 0.000000 0.000000 -0.000000 -2.485190 92.311700 -0.350934 89.176500 6.525500 4.354380 15.735700 0.000005 -0.000001 79.471800 85.878500 -78.000000 8.984550 -0.406207 -0.000000 0.360712 -1.600770 2.946700 16.377300 -0.000001 -0.000001 2.302250 -2.336890 -1.878760 6.456720 -0.000001 -0.000000 4.131040 -3.592140 -0.481930 12.994200 -0.242716 4.980390 -86.935400 -7.697160 -68.211800 5.348090 -0.000007 -0.000001 -84.970700 -39.186100 -96.414100 24.328600 0.000019 0.000005 10.457000 1.399850 -82.459900 22.291600 -0.000001 0.000005 23.083600 5.567520 -9.561920 12.994500 -0.242716 -4.980390 88.509900 4.854160 -72.911600 -5.348130 -0.000001 -0.000004 -65.342700 38.327000 -15.049000 -24.328900 0.000322 -0.000009 2.844580 9.790060 -16.294900 -22.291500 -0.000108 -0.000004 9.991150 5.399620 -2.925040 -2.192480 -6.469440 -0.000000 -175.151000 -4.790370 -2.762050 39.081100 -0.000007 -0.000012 -0.115368 0.288735 21.780000 40.985400 -0.000006 -0.000013 -0.694828 8.187980 -65.099600 11.754300 -0.000000 0.000003 -0.000050 -0.000564 -16.599400 -2.192510 6.469440 -0.000001 179.768000 18.638500 -178.842000 -39.081100 -0.002282 -0.040193 -0.047858 0.147595 19.124800 -40.985400 0.000008 0.000006 4.193130 5.167850 -66.625000 -11.754300 -0.000006 -0.000006 -0.008814 -0.094554 -20.424300
0.000000 0.000000 0.000000 0.000000 0.000000 -0.000000 -2.518130 92.323300 -0.390649 89.180500 6.450660 4.319420 15.735700 0.000005 -0.000001 79.562400 85.863000 -78.115900 8.984550 -0.406207 -0.000000 0.393012 -1.591530 2.896570 16.377300 -0.000001 -0.000001 2.224510 -2.348380 -1.869800 6.456720 -0.000001 -0.000000 4.170840 -3.639490 -0.521480 12.994200 -0.242716 4.980390 -86.946400 -7.667430 -68.207400 5.348090 -0.000007 -0.000001 -85.011900 -39.211900 -96.447600 24.328600 0.000019 0.000005 10.379900 1.370300 -82.561900 22.291600 -0.000001 0.000005 23.182100 5.566920 -9.531520 12.994500 -0.242716 -4.980390 88.520900 4.828240 -72.945800 -5.348130 -0.000001 -0.000004 -65.246000 38.326200 -14.972000 -24.328900 0.000322 -0.000009 2.849110 9.766450 -16.356500 -22.291500 -0.000108 -0.000004 9.901100 5.398010 -2.872800 -2.192480 -6.469440 -0.000000 -175.141000 -4.851560 -2.777340 39.081100 -0.000007 -0.000012 -0.114793 0.288464 21.700000 40.985400 -0.000006 -0.000013 -0.727115 8.150510 -65.029800 11.754300 -0.000000 0.000003 -0.000044 -0.000510 -16.597400 -2.192510 6.469440 -0.000001 179.797000 18.686600 -178.890000 -39.081100 -0.002282 -0.040193 -0.045816 0.142062 19.080600 -40.985400 0.000008 0.000006 4.304350 5.278020 -66.590300 -11.754300 -0.000006 -0.000006 -0.009205 -0.097599 -20.548700
0.000000 0.000000 0.000000 0.000000 0.000000 -0.000000 -2.550480 92.326200 -0.426758 89.140000 6.347530 4.245870 15.735700 0.000005 -0.000001 79.649900 85.857700 -78.224200 8.984550 -0.406207 -0.000000 0.405332 -1.579530 2.855060 16.377300 -0.000001 -0.000001 2.162880 -2.374830 -1.879160 6.456720 -0.000001 -0.000000 4.261930 -3.693760 -0.515757 12.994200 -0.242716 4.980390 -86.953800 -7.643300 -68.193200 5.348090 -0.000007 -0.000001 -85.082200 -39.238900 -96.523800 24.328600 0.000019 0.000005 10.333300 1.332610 -82.731200 22.291600 -0.000001 0.000005 23.105900 5.567480 -9.560180 12.994500 -0.242716 -4.980390 88.540100 4.772650 -72.969300 -5.348130 -0.000001 -0.000004 -65.218300 38.341100 -14.960600 -24.328900 0.000322 -0.000009 2.852360 9.856340 -16.234100 -22.291500 -0.000108 -0.000004 9.933270 5.396960 -2.838900 -2.192480 -6.469440 -0.000000 -175.074000 -4.933600 -2.879280 39.081100 -0.000007 -0.000012 -0.115614 0.290312 21.714400 40.985400 -0.000006 -0.000013 -0.749940 8.176200 -65.012100 11.754300 -0.000000 0.000003 -0.000049 -0.000560 -16.599300 -2.192510 6.469440 -0.000001 179.889000 18.649500 -178.990000 -39.081100 -0.002282 -0.040193 -0.045585 0.141664 19.046700 -40.985400 0.000008 0.000006 4.307510 5.351650 -66.544800 -11.754300 -0.000006 -0.000006 -0.009021 -0.096173 -20.490400
0.000000 0.000000 0.000000 0.000000 0.000000 -0.000000 -2.558110 92.333200 -0.445111 89.136300 6.206360 4.218360 15.735700 0.000005 -0.000001 79.787700 85.846900 -78.387500 8.984550 -0.406207 -0.000000 0.429484 -1.561820 2.804300 16.377300 -0.000001 -0.000001 2.168270 -2.360330 -1.911580 6.456720 -0.000001 -0.000000 4.381250 -3.694840 -0.538045 12.994200 -0.242716 4.980390 -86.961800 -7.614630 -68.171300 5.348090 -0.000007 -0.000001 -85.016500 -39.292900 -96.375000 24.328600 0.000019 0.000005 10.507900 1.316240 -82.940200 22.291600 -0.000001 0.000005 23.104000 5.565040 -9.437150 12.994500 -0.242716 -4.980390 88.558700 4.708390 -72.958500 -5.348130 -0.000001 -0.000004 -65.223000 38.350000 -14.889600 -24.328900 0.000322 -0.000009 2.828000 9.813070 -16.169200 -22.291500 -0.000108 -0.000004 10.011700 5.394680 -2.765160 -2.192480 -6.469440 -0.000000 -175.064000 -5.017310 -2.869190 39.081100 -0.000007 -0.000012 -0.114979 0.289492 21.661800 40.985400 -0.000006 -0.000013 -0.769602 8.121520 -64.986200 11.754300 -0.000000 0.000003 -0.000049 -0.000559 -16.599300 -2.192510 6.469440 -0.000001 179.921000 18.584000 -179.023000 -39.081100 -0.002282 -0.040193 -0.043992 0.137285 19.016300 -40.985400 0.000008 0.000006 4.380320 5.396360 -66.523300 -11.754300 -0.000006 -0.000006 -0.009205 -0.097597 -20.548600
0.000000 0.000000 0.000000 0.000000 0.000000 -0.000000 -2.562060 92.331800 -0.462911 89.111000 6.078520 4.194240 15.735700 0.000005 -0.000001 79.845200 85.830300 -78.460300 8.984550 -0.406207 -0.000000 0.463413 -1.558070 2.774330 16.377300 -0.000001 -0.000001 2.199210 -2.344950 -1.963760 6.456720 -0.000001 -0.000000 4.466070 -3.688810 -0.589465 12.994200 -0.242716 4.980390 -86.964400 -7.604490 -68.162300 5.348090 -0.000007 -0.000001 -84.832100 -39.393400 -95.827600 24.328600 0.000019 0.000005 10.456500 1.242190 -83.300600 22.291600 -0.000001 0.000005 22.959000 5.564960 -9.433240 12.994500 -0.242716 -4.980390 88.553200 4.713330 -72.914500 -5.348130 -0.000001 -0.000004 -65.171500 38.268400 -14.831300 -24.328900 0.000322 -0.000009 2.859340 9.943610 -16.137800 -22.291500 -0.000108 -0.000004 9.997110 5.393110 -2.714930 -2.192480 -6.469440 -0.000000 -175.037000 -5.117850 -2.908830 39.081100 -0.000007 -0.000012 -0.115219 0.289552 21.698700 40.985400 -0.000006 -0.000013 -0.773338 8.082930 -64.999900 11.754300 -0.000000 0.000003 -0.000042 -0.000488 -16.596600 -2.192510 6.469440 -0.000001 179.978000 18.410900 -179.097000 -39.081100 -0.002282 -0.040193 -0.045285 0.140931 19.029600 -40.985400 0.000008 0.000006 4.308170 5.368970 -66.484800 -11.754300 -0.000006 -0.000006 -0.009159 -0.097239 -20.534000
0.000000 0.000000 0.000000 0.000000 0.000000 -0.000000 -2.550770 92.339500 -0.479986 89.114900 5.894320 4.192410 15.735700 0.000005 -0.000001 80.130300 85.803600 -78.757200 8.984550 -0.406207 -0.000000 0.522669 -1.524910 2.751210 16.377300 -0.000001 -0.000001 2.226700 -2.281730 -2.013620 6.456720 -0.000001 -0.000000 4.467950 -3.666900 -0.698329 12.994200 -0.242716 4.980390 -86.979200 -7.574620 -68.181900 5.348090 -0.000007 -0.000001 -84.297200 -39.499800 -94.303800 24.328600 0.000019 0.000005 10.003100 1.025350 -84.207500 22.291600 -0.000001 0.000005 22.868300 5.561710 -9.272630 12.994500 -0.242716 -4.980390 88.535200 4.754510 -72.855000 -5.348130 -0.000001 -0.000004 -65.090500 38.136000 -14.806600 -24.328900 0.000322 -0.000009 2.872980 10.016300 -16.100500 -22.291500 -0.000108 -0.000004 10.076900 5.392420 -2.692560 -2.192480 -6.469440 -0.000000 -175.045000 -5.191880 -2.849590 39.081100 -0.000007 -0.000012 -0.114582 0.288945 21.631000 40.985400 -0.000006 -0.000013 -0.785830 8.002820 -64.981600 11.754300 -0.000000 0.000003 -0.000046 -0.000527 -16.598000 -2.192510 6.469440 -0.000001 -179.992000 18.156500 -179.125000 -39.081100 -0.002282 -0.040193 -0.043727 0.136485 19.020300 -40.985400 0.000008 0.000006 4.376070 5.296860 -66.459400 -11.754300 -0.000006 -0.000006 -0.008916 -0.095348 -20.456700
